<?xml version="1.0" standalone="no"?>
<!DOCTYPE svg PUBLIC "-//W3C//DTD SVG 20010904//EN"
 "http://www.w3.org/TR/2001/REC-SVG-20010904/DTD/svg10.dtd">
<svg version="1.0" xmlns="http://www.w3.org/2000/svg"
 width="1280.000000pt" height="1039.000000pt" viewBox="0 0 1280.000000 1039.000000"
 preserveAspectRatio="xMidYMid meet">
<g transform="translate(0.000000,1039.000000) scale(0.100000,-0.100000)"
fill="#ffffff" stroke="none">
<path d="M6523 10286 c-5 -8 -44 -39 -88 -68 -67 -45 -80 -58 -80 -81 -1 -33
-18 -52 -39 -44 -11 4 -16 19 -16 46 0 22 -5 51 -12 65 l-11 26 -12 -23 c-18
-35 -24 -66 -14 -73 10 -6 12 -47 3 -57 -13 -13 -44 14 -44 37 0 17 -13 34
-42 55 -23 17 -45 31 -50 31 -4 0 -37 18 -74 40 l-66 41 7 -33 c18 -86 104
-218 142 -218 7 0 16 -15 21 -32 6 -26 15 -35 44 -43 20 -5 39 -13 43 -16 3
-4 -8 -22 -25 -40 -48 -51 -80 -105 -80 -134 0 -92 44 -158 128 -191 43 -16
44 -16 98 11 77 39 99 74 99 155 0 61 -2 68 -44 123 -24 31 -48 57 -52 57 -5
0 -9 11 -9 25 0 15 6 25 15 25 30 0 64 24 74 51 5 15 18 36 30 48 17 17 55
119 75 204 7 29 -7 37 -21 13z m-265 -479 c16 -46 16 -47 -17 -47 -43 0 -56
21 -30 54 27 34 32 33 47 -7z m118 -33 c-45 -33 -73 -4 -45 48 11 20 11 20 38
-6 25 -26 26 -27 7 -42z m-106 -76 c0 -32 -14 -58 -30 -58 -39 0 -49 53 -12
63 31 8 42 7 42 -5z m109 3 c17 -11 -2 -51 -24 -51 -14 0 -35 29 -35 49 0 13
39 14 59 2z"/>
<path d="M6275 9523 c4 -10 10 -62 12 -115 l4 -98 -47 -55 c-39 -45 -54 -55
-79 -55 -93 0 -114 -103 -80 -390 22 -186 21 -197 -17 -220 -17 -10 -36 -16
-41 -13 -5 3 -6 30 -3 62 21 183 14 231 -41 251 -26 9 -38 9 -46 1 -6 -6 -19
-11 -28 -11 -14 0 -18 -13 -23 -77 -3 -43 -11 -114 -17 -158 -23 -162 -21
-158 -54 -168 -47 -15 -376 -14 -402 0 -20 12 -31 37 -92 215 -31 91 -84 161
-136 178 -31 10 -42 8 -90 -14 -51 -23 -55 -27 -43 -45 10 -16 10 -27 1 -51
-9 -25 -9 -38 3 -66 9 -21 14 -59 13 -93 -4 -68 9 -93 60 -122 22 -12 41 -30
44 -39 2 -10 -8 -40 -24 -66 -33 -56 -35 -84 -14 -144 23 -64 19 -93 -15 -123
-16 -15 -30 -30 -30 -35 0 -4 4 -33 10 -64 5 -32 10 -91 11 -130 2 -82 13
-124 35 -132 43 -16 68 39 40 88 -25 42 -33 174 -14 200 14 17 19 18 66 6 58
-15 69 -11 51 19 -16 25 -7 36 18 23 36 -20 71 -129 79 -245 4 -59 4 -107 0
-107 -4 0 -22 11 -40 25 -42 32 -49 31 -80 -6 -29 -35 -33 -61 -11 -79 8 -7
15 -17 15 -22 0 -5 -81 -8 -187 -7 -104 0 -219 -2 -258 -4 l-70 -5 -5 -78 -5
-79 -85 0 c-70 0 -84 -3 -82 -15 2 -8 6 -37 9 -64 l6 -49 -829 7 c-456 3
-1367 9 -2025 12 l-1196 7 7 -47 c4 -26 17 -59 28 -74 12 -15 28 -41 36 -58 8
-17 30 -44 50 -60 20 -16 36 -33 36 -37 0 -5 9 -22 20 -37 19 -27 20 -42 18
-262 l-3 -233 -60 -5 -60 -5 -5 -70 -5 -70 -135 -3 c-74 -1 -139 -7 -144 -12
-5 -5 -17 -5 -28 1 -26 14 -48 4 -48 -21 0 -18 -6 -20 -75 -20 -41 0 -75 -4
-75 -10 0 -18 50 -83 115 -147 59 -59 65 -70 65 -106 0 -36 6 -46 49 -86 27
-25 56 -61 65 -79 12 -23 32 -40 63 -54 31 -14 48 -28 55 -48 5 -17 23 -35 44
-45 23 -11 34 -23 35 -38 2 -44 2 -133 1 -174 -2 -36 -5 -43 -22 -43 -26 0
-26 -22 0 -45 18 -16 20 -31 20 -147 l0 -128 -43 0 c-52 0 -67 -13 -67 -57 0
-24 7 -38 30 -54 16 -13 35 -38 41 -56 6 -19 24 -43 40 -55 17 -13 31 -35 35
-54 5 -29 1 -197 -26 -929 -6 -148 -17 -461 -25 -695 -40 -1135 -46 -1321 -60
-1675 -8 -209 -17 -452 -20 -540 -27 -794 -23 -732 -50 -771 -13 -19 -35 -44
-50 -55 -29 -23 -32 -41 -9 -63 18 -19 10 -23 -46 -28 -28 -2 -36 -8 -38 -25
-3 -23 -2 -23 115 -24 65 0 280 -4 478 -9 l360 -9 303 37 c299 36 323 42 288
71 -7 6 -16 26 -20 43 -13 68 -104 126 -154 99 -16 -9 -23 -7 -35 12 -13 20
-14 105 -7 693 5 368 13 1216 19 1884 6 668 13 1302 16 1408 l5 193 36 35 c20
19 47 34 59 34 17 0 24 7 29 31 3 18 1 38 -5 45 -10 12 62 14 445 14 427 0
456 -1 457 -17 2 -43 -2 -224 -11 -423 -5 -118 -12 -298 -15 -400 -3 -102 -10
-266 -16 -365 -10 -191 -20 -621 -44 -1925 -18 -1024 -24 -1199 -38 -1222 -9
-13 -24 -18 -54 -18 -68 0 -132 -66 -148 -152 -7 -34 -10 -36 -78 -57 -40 -12
-76 -21 -82 -21 -24 0 -85 -22 -85 -30 0 -14 855 -13 1034 0 162 12 202 23
343 91 71 34 115 49 143 49 40 0 40 0 40 38 0 20 -9 56 -20 79 -19 44 -31 50
-100 55 l-35 3 3 1305 c2 718 7 1659 11 2092 l7 788 24 25 c13 14 29 25 36 25
8 0 14 16 16 38 l3 37 533 0 532 0 -1 -820 c-1 -451 -4 -1418 -8 -2150 l-6
-1330 -25 -3 c-14 -2 -30 -9 -35 -16 -6 -7 -20 -16 -32 -20 -12 -4 -41 -30
-66 -59 -39 -46 -89 -85 -179 -141 -17 -9 -28 -25 -28 -38 l0 -21 592 7 c325
4 599 11 608 16 9 5 35 36 59 69 44 64 44 67 -13 73 -26 3 -32 10 -52 68 -13
36 -23 75 -24 88 0 18 -6 22 -31 22 l-30 0 7 2083 c6 1738 9 2083 20 2090 8 5
14 25 14 47 l0 40 895 0 895 0 0 -48 c0 -39 4 -49 23 -57 20 -9 22 -18 25
-105 2 -52 -2 -112 -8 -133 -8 -29 -8 -42 0 -53 12 -14 28 -1801 30 -3245 l0
-616 -22 4 c-19 3 -27 -4 -41 -34 -54 -116 -51 -113 -118 -113 -44 0 -60 -3
-57 -12 3 -7 58 -45 124 -85 l119 -72 573 0 c534 -1 573 0 570 16 -2 10 -35
31 -88 53 -67 30 -85 42 -91 62 -19 74 -63 111 -141 122 l-46 7 -6 102 c-3 56
-8 408 -11 782 -3 374 -12 1256 -20 1960 -8 704 -15 1324 -15 1378 l0 97 515
0 515 0 0 -29 c0 -39 9 -61 26 -61 8 0 22 -8 33 -19 10 -10 23 -20 29 -22 10
-4 22 -992 39 -3265 l6 -881 -51 -7 c-40 -5 -56 -13 -80 -40 -16 -19 -35 -50
-42 -70 l-12 -36 -99 0 c-54 0 -99 -4 -99 -9 0 -14 19 -18 170 -41 74 -11 155
-27 180 -35 93 -30 368 -87 440 -91 415 -24 1103 -33 1115 -14 3 5 2 18 -4 28
-7 14 -36 22 -123 36 -191 30 -208 35 -208 59 0 33 -39 105 -69 126 -46 33
-79 36 -112 12 l-29 -22 0 34 c0 19 -4 191 -10 383 -5 192 -17 619 -25 949
-45 1745 -61 2258 -85 2705 -6 102 -10 213 -10 246 l0 61 257 6 c141 4 336 7
433 7 l178 0 -6 -45 c-4 -43 -3 -45 25 -51 16 -3 46 -20 67 -38 l39 -32 13
-835 c35 -2302 47 -3277 41 -3301 l-7 -28 -21 21 c-56 56 -169 -28 -169 -124
0 -32 -3 -35 -35 -41 -58 -11 -41 -46 23 -46 15 0 210 -29 434 -65 l408 -64
427 25 c298 17 430 29 435 37 5 7 7 23 6 37 -4 30 -28 38 -123 39 -81 1 -100
10 -91 39 5 14 -1 29 -18 49 -14 15 -36 42 -49 58 l-24 30 -32 790 c-17 435
-36 889 -41 1010 -6 121 -17 387 -25 590 -8 204 -29 696 -45 1095 -25 600 -36
1005 -31 1102 1 10 14 32 30 51 16 18 33 45 36 59 4 15 22 34 46 47 41 23 47
40 29 85 -9 24 -15 26 -64 26 -54 0 -55 0 -61 33 -3 17 -4 73 -3 124 3 79 6
95 26 115 12 14 22 32 22 40 0 10 -10 18 -22 20 -22 3 -23 7 -26 116 -2 100
-1 113 15 119 25 8 63 44 63 59 0 13 42 44 60 44 7 0 52 40 101 89 87 87 89
91 89 136 0 45 3 51 63 109 71 70 119 131 110 140 -4 3 -39 6 -80 6 -70 0 -74
1 -83 26 -7 18 -15 24 -26 20 -9 -3 -21 -3 -27 1 -7 5 -77 8 -157 8 l-145 0
-5 70 -5 70 -52 0 c-28 0 -56 5 -62 10 -6 6 -11 104 -12 242 -2 205 0 235 14
251 10 10 17 26 17 35 0 9 6 17 14 17 15 0 76 65 76 81 0 6 14 27 31 49 19 23
33 54 36 80 l6 42 -464 -6 c-255 -3 -921 -8 -1479 -11 -558 -3 -1245 -8 -1527
-11 -583 -7 -551 -12 -539 72 l6 45 -88 -3 -87 -3 -1 75 0 75 -80 3 c-43 1
-160 5 -258 8 -163 4 -177 6 -158 20 28 19 28 47 0 85 -19 25 -27 29 -51 23
l-30 -6 7 48 c4 27 23 81 42 120 19 39 34 76 34 84 0 13 28 39 42 40 4 0 3
-11 -2 -24 -13 -35 -1 -39 26 -7 22 27 26 28 64 18 33 -9 40 -15 40 -36 0 -35
-31 -132 -53 -163 -11 -17 -17 -41 -15 -60 2 -28 8 -34 30 -36 21 -3 30 2 37
20 16 40 39 129 56 221 l16 88 -26 30 c-29 35 -29 43 -13 137 11 67 11 71 -15
120 -40 77 -36 106 24 182 27 35 32 58 44 221 1 25 10 60 19 76 16 33 11 50
-10 32 -10 -8 -19 -5 -35 10 -26 24 -32 25 -57 12 -9 -6 -29 -12 -44 -16 -38
-8 -103 -78 -138 -150 -16 -33 -38 -107 -49 -163 -24 -119 -25 -122 -52 -122
-10 0 -19 -6 -19 -14 0 -8 -15 -17 -37 -21 -96 -18 -134 -58 -164 -178 -11
-44 -18 -52 -106 -117 -52 -39 -99 -70 -103 -70 -5 0 -3 21 5 48 8 26 19 88
25 139 10 93 9 102 -26 165 -19 34 -9 62 20 53 11 -4 57 -8 101 -10 44 -2 64
-1 45 1 -206 25 -241 49 -219 151 20 94 21 103 10 116 -7 10 -8 32 -1 75 8 50
8 68 -4 90 -8 15 -14 36 -13 46 2 16 -7 19 -59 23 l-61 4 -16 -43 c-25 -67
-55 -187 -63 -251 -13 -112 -23 -65 -23 111 0 156 -7 247 -27 345 -8 38 -51
87 -78 87 -31 0 -46 -19 -46 -58 0 -39 -15 -72 -34 -72 -7 0 -26 10 -41 22
-24 19 -26 26 -21 61 4 22 13 49 21 60 21 30 19 71 -4 91 -15 14 -33 17 -78
14 l-58 -3 0 113 0 112 -29 0 c-23 0 -27 -3 -21 -17z m25 -369 c0 -47 -11 -55
-51 -34 -16 9 -17 14 -8 33 18 33 41 57 50 51 5 -3 9 -25 9 -50z m-227 -629
c-30 -25 -43 -24 -43 4 0 10 14 24 33 33 28 14 32 14 35 0 2 -8 -9 -25 -25
-37z m1607 -4 c0 -6 -4 -13 -10 -16 -5 -3 -10 1 -10 9 0 9 5 16 10 16 6 0 10
-4 10 -9z m-2500 -15 c0 -8 -4 -18 -10 -21 -5 -3 -10 3 -10 14 0 12 5 21 10
21 6 0 10 -6 10 -14z m648 -53 c-2 -5 -16 -32 -31 -61 -39 -74 -46 -188 -17
-264 35 -94 23 -100 -61 -34 l-57 45 -7 73 c-12 123 -50 170 -161 198 -23 5
-48 18 -55 27 -13 15 -5 16 106 10 66 -3 145 -2 175 2 77 11 112 12 108 4z
m1329 -368 l1 -66 -34 7 c-19 3 -40 2 -47 -3 -18 -13 -89 -10 -94 5 -3 6 1 12
7 12 7 0 44 25 83 55 39 30 73 55 76 55 3 0 7 -29 8 -65z m-1410 -27 c29 -18
53 -37 53 -41 0 -5 -40 -7 -90 -5 -94 3 -98 6 -81 50 5 13 12 31 15 42 6 17 8
17 29 2 12 -9 45 -30 74 -48z m-247 -55 c0 -14 -19 -38 -25 -32 -8 8 5 39 16
39 5 0 9 -3 9 -7z m1868 -9 c12 -22 -4 -93 -26 -117 -12 -13 -18 -41 -20 -95
-6 -149 -25 -163 -36 -26 -6 75 3 184 20 242 5 18 51 15 62 -4z m-270 -176 l2
-178 -24 0 c-32 0 -42 39 -21 81 15 29 15 31 -7 49 -16 14 -32 18 -50 14 -26
-5 -28 -3 -28 24 0 17 7 37 15 46 19 18 19 32 1 39 -8 3 -18 23 -22 44 -4 21
-11 44 -17 51 -8 10 5 12 69 10 l79 -3 3 -177z m78 46 c-3 -75 -7 -138 -10
-141 -2 -2 0 -19 5 -36 12 -43 12 -47 -9 -47 -36 0 -46 38 -50 203 l-4 157 36
0 36 0 -4 -136z m-1527 -49 l2 -175 -42 0 c-34 0 -40 3 -31 12 7 7 12 22 12
34 0 13 5 26 11 30 8 4 9 46 5 134 -3 70 -3 130 1 134 3 3 14 6 23 6 14 0 16
-21 19 -175z m161 140 c0 -24 -6 -37 -20 -45 -19 -10 -29 -50 -12 -50 18 0 31
-51 33 -132 l2 -83 -51 -3 c-44 -3 -52 0 -52 15 -1 17 -2 17 -15 -1 -8 -11
-17 -18 -19 -15 -4 4 -9 229 -7 317 l1 32 70 0 70 0 0 -35z m300 -241 c0 -57
-3 -76 -15 -80 -24 -10 -47 14 -35 36 6 10 10 35 10 55 0 41 16 78 31 70 5 -4
9 -40 9 -81z m528 21 c6 -106 6 -105 -102 -105 l-93 0 -7 61 c-4 34 -4 65 1
70 8 8 170 38 188 34 6 -1 11 -28 13 -60z m118 20 c0 -22 6 -50 12 -62 21 -37
-1 -65 -46 -61 l-37 3 3 64 c4 78 15 103 45 99 18 -2 22 -10 23 -43z m-776 26
c0 -5 -9 -11 -20 -14 -13 -3 -20 0 -20 9 0 8 9 14 20 14 11 0 20 -4 20 -9z
m210 0 c0 -5 -7 -14 -15 -21 -13 -10 -15 -9 -15 9 0 12 6 21 15 21 8 0 15 -4
15 -9z m109 -7 c37 -8 61 -49 61 -106 l0 -38 -48 0 c-41 0 -51 4 -62 25 -11
21 -10 28 5 51 18 27 18 28 -11 51 l-29 23 26 0 c15 0 41 -3 58 -6z m1091
-116 c0 -4 -7 -8 -15 -8 -10 0 -15 10 -15 28 1 26 1 26 15 8 8 -11 15 -23 15
-28z m-2000 26 c0 -15 -22 -44 -31 -39 -11 7 7 45 21 45 6 0 10 -3 10 -6z m60
-20 c0 -14 -4 -23 -9 -20 -5 3 -7 15 -4 26 7 28 13 25 13 -6z m731 -20 c12
-14 11 -16 -5 -13 -11 2 -21 10 -24 17 -5 17 13 15 29 -4z m4866 -7329 c10
-24 9 -25 -18 -25 -30 0 -34 6 -23 34 9 24 27 19 41 -9z m-1897 -1 c0 -8 -5
-12 -10 -9 -6 4 -8 11 -5 16 9 14 15 11 15 -7z"/>
<path d="M7348 8443 c7 -3 16 -2 19 1 4 3 -2 6 -13 5 -11 0 -14 -3 -6 -6z"/>
<path d="M7253 8433 c15 -2 39 -2 55 0 15 2 2 4 -28 4 -30 0 -43 -2 -27 -4z"/>
</g>
</svg>
